<?xml version="1.0" encoding="utf-8"?>
<!-- Generator: Adobe Illustrator 26.0.3, SVG Export Plug-In . SVG Version: 6.00 Build 0)  -->
<svg version="1.1" xmlns="http://www.w3.org/2000/svg" xmlns:xlink="http://www.w3.org/1999/xlink" x="0px" y="0px"
	 viewBox="0 0 1920 1080" style="enable-background:new 0 0 1920 1080;" xml:space="preserve">
<style type="text/css">
	.st0{display:none;}
	.st1{display:inline;fill:#080808;}
	.st2{fill:#FFFAFA;}
	.st3{fill:#FFFFFF;stroke:#FFFFFF;stroke-width:4;stroke-miterlimit:10;}
	.st4{fill:#E24B10;stroke:#E24B10;stroke-width:4;stroke-miterlimit:10;}
	.st5{fill:#FFFFFF;}
</style>
<g id="fundo" class="st0">
	<rect class="st1" width="1920" height="1081.4"/>
</g>
<g id="E">
	<g>
		<path class="st2" d="M475.1,418.9v118.8c0,13.2,10.7,24,24,24h19.5V394.9h-19.5C485.9,394.9,475.1,405.7,475.1,418.9z"/>
		<path class="st2" d="M525.8,394.9v33.5h23.9c12.9,0,23.4-10.5,23.4-23.4v-10.1H525.8z"/>
		<path class="st2" d="M549.7,528.1h-23.9v33.5h47.4v-10.1C573.1,538.6,562.6,528.1,549.7,528.1z"/>
		<path class="st2" d="M556.4,463h-30.6v33.5h30.6c9.3,0,16.8-7.5,16.8-16.8C573.1,470.5,565.6,463,556.4,463z"/>
	</g>
</g>
<g id="titulo">
	<g>
		<path class="st3" d="M636.2,557.4v5.6c-9.5,0-17.5-3.2-24.2-9.5c-6.7-6.3-10-14.4-10-24.3v-118h6.4v118c0,8.1,2.7,14.9,8.1,20.2
			C621.9,554.8,628.5,557.4,636.2,557.4z"/>
		<path class="st3" d="M689.2,563.6h-1.8c-12.7,0-23.7-4.8-33.1-14.3c-9.4-9.5-14.1-20.6-14.1-33.3c0-12.7,4.7-23.6,14-32.9
			c9.3-9.3,20.9-13.9,34.6-13.9c13.7,0,25.5,5.5,35.4,16.4l-62.8,62c8.7,6.9,17,10.4,25,10.4s15.2-1.8,21.5-5.5
			c6.3-3.7,11.6-8.6,15.7-14.7V548C714.2,558.4,702.7,563.6,689.2,563.6z M687.1,474.8c-10.6,0-20,4.1-28.2,12.3
			c-8.2,8.2-12.3,17.6-12.3,28.3c0,10.7,3.5,20,10.6,28l58.2-57.8C707.2,478.4,697.7,474.8,687.1,474.8z"/>
		<path class="st3" d="M775.4,556.8v5.6c-9.5,0-17.5-3.2-24.2-9.5c-6.7-6.3-10-14.4-10-24.3V435h6.4v36.4h27.6v5.6h-27.6v51.6
			c0,8.1,2.7,14.9,8.1,20.2C761.1,554.2,767.7,556.8,775.4,556.8z"/>
		<path class="st3" d="M824.6,474.6c-7.1,0-13.3,2.7-18.7,8c-5.4,5.3-8.1,11.5-8.1,18.6v60h-6.4v-90h6.4v13.4
			c2.4-4.5,6.1-8.3,11.2-11.2c5.1-2.9,10.7-4.4,17-4.4c6.3,0,12.3,2.1,18,6.4v8C838.2,477.6,831.7,474.6,824.6,474.6z"/>
		<path class="st3" d="M869.8,549.1c-9.2-9.5-13.8-20.6-13.8-33.3c0-12.7,4.7-23.6,14-32.9c9.3-9.3,20.6-13.9,33.7-13.9
			c13.1,0,24.3,4.6,33.6,13.9c9.3,9.3,13.9,20.3,13.9,33c0,12.7-4.5,23.8-13.6,33.3c-9.1,9.5-20.1,14.2-33,14.2h-1.8
			C890,563.4,879,558.7,869.8,549.1z M944.8,516.3c0-11.3-4-21-12.1-29.3c-8.1-8.3-17.7-12.4-28.9-12.4c-11.2,0-20.9,4.2-29.1,12.5
			c-8.2,8.3-12.3,18.1-12.3,29.3c0,11.2,4.1,20.9,12.3,29.1c8.2,8.2,17.9,12.3,29.2,12.3c11.3,0,20.9-4.1,28.9-12.3
			C940.8,537.3,944.8,527.6,944.8,516.3z"/>
		<path class="st4" d="M1021.1,419.2c-5.3-3.2-11.2-4.8-17.7-4.8c-6.5,0-12.1,2-16.7,6.1c-4.6,4.1-6.9,9.6-6.9,16.7v1
			c0,8.4,4.7,16.1,14,23c4,2.9,8.5,5.8,13.5,8.7c5,2.9,10,5.9,15,9.2c5,3.3,9.5,6.7,13.6,10.4c4.1,3.7,7.4,8.2,10,13.5
			c2.6,5.3,3.9,11.2,3.9,17.6v2c0,12.7-4.3,22.7-12.9,30.2c-8.6,7.5-19.2,11.2-31.9,11.2c-16.7,0-29.6-6.9-38.8-20.6v-10.8
			c3.5,7.6,8.6,13.8,15.3,18.5c6.7,4.7,15.1,7.1,25.1,7.1s18.7-3.2,26-9.6c7.3-6.4,11-14.9,11-25.6v-1.2c0-6.7-1.7-12.8-5.2-18.3
			c-3.5-5.5-7.8-10.1-13-13.6c-5.2-3.5-10.9-7.2-17-11.1c-6.1-3.9-11.8-7.5-17-10.8c-5.2-3.3-9.5-7.5-13-12.6
			c-3.5-5.1-5.2-10.6-5.2-16.6v-1.4c0-9.3,3-16.5,9-21.4c6-4.9,13.4-7.4,22.2-7.4c12.3,0,22,4.5,29.2,13.6v10.2
			C1030.6,426.8,1026.4,422.4,1021.1,419.2z"/>
		<path class="st4" d="M1102,556.8v5.6c-9.5,0-17.5-3.2-24.2-9.5c-6.7-6.3-10-14.4-10-24.3V435h6.4v36.4h27.6v5.6h-27.6v51.6
			c0,8.1,2.7,14.9,8.1,20.2C1087.7,554.2,1094.3,556.8,1102,556.8z"/>
		<path class="st4" d="M1126.8,549.1c-9.2-9.5-13.8-20.6-13.8-33.3c0-12.7,4.7-23.6,14-32.9c9.3-9.3,20.6-13.9,33.7-13.9
			c13.1,0,24.3,4.6,33.6,13.9c9.3,9.3,13.9,20.3,13.9,33c0,12.7-4.5,23.8-13.6,33.3c-9.1,9.5-20.1,14.2-33,14.2h-1.8
			C1147,563.4,1136,558.7,1126.8,549.1z M1201.8,516.3c0-11.3-4-21-12.1-29.3c-8.1-8.3-17.7-12.4-28.9-12.4
			c-11.2,0-20.9,4.2-29.1,12.5c-8.2,8.3-12.3,18.1-12.3,29.3c0,11.2,4.1,20.9,12.3,29.1c8.2,8.2,17.9,12.3,29.2,12.3
			c11.3,0,20.9-4.1,28.9-12.3C1197.8,537.3,1201.8,527.6,1201.8,516.3z"/>
		<path class="st4" d="M1270.8,563.8h-1.8c-12.8,0-23.8-4.7-33-14.2c-9.2-9.5-13.8-20.6-13.8-33.3c0-12.7,4.7-23.7,14-33
			c9.3-9.3,20.8-13.9,34.4-13.9c13.6,0,25.2,5.1,34.8,15.4V495c-4.1-6.1-9.4-11-15.7-14.6c-6.3-3.6-13-5.4-19.9-5.4
			c-11.1,0-20.7,4.1-28.9,12.3c-8.2,8.2-12.3,18-12.3,29.3c0,11.3,4.1,21.1,12.3,29.3s17.8,12.3,28.9,12.3c6.9,0,13.6-1.8,19.9-5.4
			c6.3-3.6,11.6-8.5,15.7-14.8v10.4C1296.1,558.7,1284.5,563.8,1270.8,563.8z"/>
		<path class="st4" d="M1322.4,411.6h6.4v90.8l35.6-31.2h8.2l-41.2,36l51.6,54h-8.6l-45.6-47.4v47.4h-6.4V411.6z"/>
	</g>
	<g>
		<path class="st5" d="M781,617.4v3.8h-27.1v-34.4H780v3.8h-21.4v11h20v3.8h-20v12H781z"/>
		<path class="st5" d="M790.9,585v36.2h-4.4V585H790.9z"/>
		<path class="st5" d="M801,608.9c0,3,0.6,5.4,1.9,7c1.3,1.6,3.1,2.5,5.5,2.5c1.9,0,3.4-0.4,4.6-1.1c1.1-0.8,1.9-1.7,2.3-2.9
			l3.9,1.1c-1.6,4.2-5.2,6.2-10.8,6.2c-3.9,0-6.9-1.2-8.9-3.5c-2-2.3-3.1-5.8-3.1-10.4c0-4.4,1-7.7,3.1-10c2-2.3,5-3.5,8.8-3.5
			c3.9,0,6.8,1.2,8.7,3.5c1.9,2.3,2.9,5.9,2.9,10.5v0.6H801z M815.3,605.6c-0.2-2.8-1-4.8-2.1-6.1s-2.9-1.9-5.1-1.9
			c-2.1,0-3.8,0.7-5.1,2.1s-1.9,3.4-2,5.9H815.3z"/>
		<path class="st5" d="M835.6,621c-1.4,0.4-2.9,0.6-4.4,0.6c-1.8,0-3.1-0.5-4-1.5s-1.3-2.5-1.3-4.5V598h-3.1v-3.2h3.2l1.3-5.9h2.9
			v5.9h4.9v3.2h-4.9v16.7c0,1.3,0.2,2.2,0.6,2.7s1.1,0.8,2.2,0.8c0.6,0,1.4-0.1,2.5-0.3V621z"/>
		<path class="st5" d="M843.8,607.4v13.8h-4.4V601c0-0.9,0-1.9,0-2.9s-0.1-2.1-0.1-3.2h4.2c0,0.7,0.1,1.4,0.1,2c0,0.6,0,1.1,0.1,1.6
			c0,0.4,0,0.8,0,1.1c0,0.3,0,0.5,0,0.7h0.1c0.5-1.6,1-2.8,1.6-3.7c0.6-0.8,1.2-1.4,2-1.7s1.6-0.5,2.7-0.5c0.6,0,1.2,0.1,1.8,0.2v4
			c-0.6-0.2-1.3-0.2-2.3-0.2c-1.8,0-3.2,0.8-4.2,2.4C844.3,602.3,843.8,604.5,843.8,607.4z"/>
		<path class="st5" d="M878.3,608c0,4.6-1,8.1-3.1,10.3c-2,2.3-5,3.4-8.9,3.4c-3.9,0-6.8-1.2-8.7-3.5c-2-2.4-3-5.8-3-10.2
			c0-4.6,1-8,3-10.3c2-2.3,4.9-3.4,8.9-3.4c4,0,7,1.1,8.9,3.3S878.3,603.3,878.3,608z M873.7,608c0-3.6-0.5-6.3-1.6-7.9
			c-1.1-1.7-2.9-2.5-5.5-2.5c-2.6,0-4.4,0.8-5.6,2.5s-1.7,4.3-1.7,7.9c0,3.5,0.6,6.1,1.7,7.8c1.1,1.8,2.9,2.6,5.3,2.6
			c2.6,0,4.5-0.8,5.7-2.5C873.1,614.2,873.7,611.6,873.7,608z"/>
		<path class="st5" d="M900.8,621.2c0-0.2-0.1-0.5-0.1-1c0-0.5-0.1-1-0.1-1.6c0-0.6,0-1.1,0-1.6h-0.1c-0.8,1.7-1.9,2.9-3.2,3.6
			s-3,1.1-5,1.1c-3.3,0-5.8-1.1-7.4-3.4c-1.6-2.2-2.4-5.6-2.4-10.2c0-4.6,0.8-8.1,2.4-10.4c1.6-2.3,4-3.5,7.3-3.5c2,0,3.7,0.4,5,1.1
			c1.3,0.7,2.4,1.9,3.2,3.5h0l0-3v-11h4.4v30.8c0,1.4,0,2.5,0,3.4s0.1,1.6,0.1,2H900.8z M887.1,608c0,3.7,0.5,6.3,1.5,7.9
			c1,1.6,2.6,2.4,4.8,2.4c2.5,0,4.3-0.9,5.4-2.6c1.1-1.7,1.7-4.4,1.7-8c0-3.5-0.6-6.1-1.7-7.7c-1.1-1.6-2.9-2.4-5.4-2.4
			c-2.2,0-3.8,0.8-4.8,2.5C887.6,601.6,887.1,604.3,887.1,608z"/>
		<path class="st5" d="M933.9,608c0,4.6-1,8.1-3.1,10.3c-2,2.3-5,3.4-8.9,3.4c-3.9,0-6.8-1.2-8.7-3.5c-2-2.4-3-5.8-3-10.2
			c0-4.6,1-8,3-10.3c2-2.3,4.9-3.4,8.9-3.4c4,0,7,1.1,8.9,3.3S933.9,603.3,933.9,608z M929.3,608c0-3.6-0.5-6.3-1.6-7.9
			c-1.1-1.7-2.9-2.5-5.5-2.5c-2.6,0-4.4,0.8-5.6,2.5s-1.7,4.3-1.7,7.9c0,3.5,0.6,6.1,1.7,7.8c1.1,1.8,2.9,2.6,5.3,2.6
			c2.6,0,4.5-0.8,5.7-2.5C928.8,614.2,929.3,611.6,929.3,608z"/>
		<path class="st5" d="M943.9,605.9v15.3h-4.4v-20.8c0-1.5,0-2.8,0-3.7s-0.1-1.6-0.1-1.9h4.2c0,0.4,0.1,0.8,0.1,1.3
			c0,0.5,0.1,1.1,0.1,1.6c0,0.6,0,1.1,0,1.6h0.1c0.9-1.9,2-3.2,3.2-3.9s2.7-1.1,4.5-1.1c2,0,3.6,0.4,4.7,1.2c1.2,0.8,2,2.1,2.4,3.8
			h0.1c0.9-1.8,2-3.1,3.3-3.8s2.9-1.2,4.7-1.2c2.7,0,4.6,0.7,5.8,2.2c1.2,1.4,1.8,3.8,1.8,7.1v17.6H970v-16.7c0-2.6-0.4-4.3-1.1-5.3
			c-0.7-1-2-1.5-3.8-1.5c-1.9,0-3.4,0.7-4.5,2.1s-1.6,3.4-1.6,6.1v15.3h-4.3v-16.7c0-2.6-0.4-4.3-1-5.3c-0.7-1-2-1.5-3.8-1.5
			c-1.9,0-3.4,0.7-4.4,2.1C944.4,601.3,943.9,603.3,943.9,605.9z"/>
		<path class="st5" d="M984.4,608.9c0,3,0.6,5.4,1.9,7c1.3,1.6,3.1,2.5,5.5,2.5c1.9,0,3.4-0.4,4.6-1.1c1.1-0.8,1.9-1.7,2.3-2.9
			l3.9,1.1c-1.6,4.2-5.2,6.2-10.8,6.2c-3.9,0-6.9-1.2-8.9-3.5c-2-2.3-3.1-5.8-3.1-10.4c0-4.4,1-7.7,3.1-10c2-2.3,5-3.5,8.8-3.5
			c3.9,0,6.8,1.2,8.7,3.5c1.9,2.3,2.9,5.9,2.9,10.5v0.6H984.4z M998.7,605.6c-0.2-2.8-1-4.8-2.1-6.1s-2.9-1.9-5.1-1.9
			c-2.1,0-3.8,0.7-5.1,2.1s-1.9,3.4-2,5.9H998.7z M998.8,585.1l-8.1,6.8h-2.3v-0.5l5.3-7h5.1V585.1z"/>
		<path class="st5" d="M1028.7,613.9c0,2.5-0.9,4.4-2.8,5.8c-1.9,1.4-4.5,2-7.9,2c-3.3,0-5.8-0.5-7.6-1.6s-2.9-2.8-3.5-5.1l3.9-0.8
			c0.4,1.4,1.1,2.5,2.3,3.1s2.8,1,4.9,1c2.2,0,3.9-0.3,4.9-1c1-0.7,1.5-1.7,1.5-3.1c0-1-0.4-1.9-1.1-2.5c-0.7-0.7-1.9-1.2-3.5-1.6
			c-1.9-0.5-3.4-0.9-4.5-1.2c-1.1-0.3-2-0.6-2.6-0.8c-0.6-0.2-1.1-0.5-1.4-0.7c-1.1-0.6-1.9-1.4-2.5-2.3c-0.6-0.9-0.9-2-0.9-3.3
			c0-2.4,0.9-4.2,2.6-5.5c1.7-1.3,4.2-1.9,7.5-1.9c2.9,0,5.2,0.5,6.9,1.5c1.7,1,2.8,2.7,3.3,4.9l-4,0.5c-0.2-1.2-0.9-2.1-2-2.7
			s-2.5-0.9-4.3-0.9c-2,0-3.5,0.3-4.4,0.9c-0.9,0.6-1.4,1.5-1.4,2.7c0,0.9,0.3,1.6,0.8,2.2s1.6,1.1,3.1,1.4c2,0.5,4,1,5.8,1.6
			c1.8,0.6,3.2,1.2,4,1.7c0.9,0.7,1.6,1.5,2.1,2.4S1028.7,612.6,1028.7,613.9z"/>
		<path class="st5" d="M1044,621c-1.4,0.4-2.9,0.6-4.4,0.6c-1.8,0-3.1-0.5-4-1.5s-1.3-2.5-1.3-4.5V598h-3.1v-3.2h3.2l1.3-5.9h2.9
			v5.9h4.9v3.2h-4.9v16.7c0,1.3,0.2,2.2,0.6,2.7s1.1,0.8,2.2,0.8c0.6,0,1.4-0.1,2.5-0.3V621z"/>
		<path class="st5" d="M1052.1,585v4.2h-4.4V585H1052.1z M1052.1,594.8v26.4h-4.4v-26.4H1052.1z"/>
		<path class="st5" d="M1069,621.7c-3.7,0-6.5-1.2-8.5-3.5s-2.9-5.7-2.9-10.2c0-4.4,1-7.8,2.9-10.2s4.8-3.5,8.4-3.5
			c2.7,0,4.9,0.7,6.7,2.1c1.8,1.4,2.9,3.3,3.4,5.8l-4.5,0.3c-0.2-1.5-0.8-2.6-1.7-3.5c-0.9-0.9-2.2-1.3-4-1.3c-2.3,0-4,0.8-5.1,2.3
			c-1,1.5-1.6,4.2-1.6,7.8c0,3.5,0.6,6.1,1.7,7.8c1.1,1.7,2.8,2.5,5,2.5c1.6,0,2.9-0.4,3.9-1.3c1-0.8,1.7-2.1,1.9-3.9l4.4,0.3
			c-0.2,1.7-0.8,3.2-1.7,4.4c-0.9,1.3-2.1,2.2-3.5,2.9S1070.9,621.7,1069,621.7z"/>
		<path class="st5" d="M1106.2,608c0,4.6-1,8.1-3.1,10.3c-2,2.3-5,3.4-8.9,3.4c-3.9,0-6.8-1.2-8.7-3.5c-2-2.4-3-5.8-3-10.2
			c0-4.6,1-8,3-10.3c2-2.3,4.9-3.4,8.9-3.4c4,0,7,1.1,8.9,3.3S1106.2,603.3,1106.2,608z M1101.6,608c0-3.6-0.5-6.3-1.6-7.9
			c-1.1-1.7-2.9-2.5-5.5-2.5c-2.6,0-4.4,0.8-5.6,2.5s-1.7,4.3-1.7,7.9c0,3.5,0.6,6.1,1.7,7.8s2.9,2.6,5.3,2.6c2.6,0,4.5-0.8,5.7-2.5
			C1101,614.2,1101.6,611.6,1101.6,608z"/>
	</g>
</g>
</svg>
